<?xml version="1.0" standalone="no"?>
<!DOCTYPE svg PUBLIC "-//W3C//DTD SVG 1.1//EN" "http://www.w3.org/Graphics/SVG/1.1/DTD/svg11.dtd" >
<svg xmlns="http://www.w3.org/2000/svg">
<metadata>
Created by FontForge 20120731 at Wed Jun 28 14:28:51 2017
 By admin
</metadata>
<defs>
<font id="tf" horiz-adv-x="1024" >
  <font-face 
    font-family="tf"
    font-weight="500"
    font-stretch="normal"
    units-per-em="1024"
    panose-1="2 0 6 3 0 0 0 0 0 0"
    ascent="896"
    descent="-128"
    x-height="792"
    bbox="1 -128 1018 890"
    underline-thickness="0"
    underline-position="0"
    unicode-range="U+0078-E7D3"
  />
<missing-glyph 
 />
    <glyph glyph-name=".notdef" 
 />
    <glyph glyph-name=".notdef" 
 />
    <glyph glyph-name=".null" horiz-adv-x="0" 
 />
    <glyph glyph-name="nonmarkingreturn" horiz-adv-x="341" 
 />
    <glyph glyph-name="x" unicode="x" horiz-adv-x="1001" 
d="M281 543q-27 -1 -53 -1h-83q-18 0 -36.5 -6t-32.5 -18.5t-23 -32t-9 -45.5v-76h912v41q0 16 -0.5 30t-0.5 18q0 13 -5 29t-17 29.5t-31.5 22.5t-49.5 9h-133v-97h-438v97zM955 310v-52q0 -23 0.5 -52t0.5 -58t-10.5 -47.5t-26 -30t-33 -16t-31.5 -4.5q-14 -1 -29.5 -0.5
t-29.5 0.5h-32l-45 128h-439l-44 -128h-29h-34q-20 0 -45 1q-25 0 -41 9.5t-25.5 23t-13.5 29.5t-4 30v167h911zM163 247q-12 0 -21 -8.5t-9 -21.5t9 -21.5t21 -8.5q13 0 22 8.5t9 21.5t-9 21.5t-22 8.5zM316 123q-8 -26 -14 -48q-5 -19 -10.5 -37t-7.5 -25t-3 -15t1 -14.5
t9.5 -10.5t21.5 -4h37h67h81h80h64h36q23 0 34 12t2 38q-5 13 -9.5 30.5t-9.5 34.5q-5 19 -11 39h-368zM336 498v228q0 11 2.5 23t10 21.5t20.5 15.5t34 6h188q31 0 51.5 -14.5t20.5 -52.5v-227h-327z" />
    <glyph glyph-name="search-plus" unicode="&#xe699;" 
d="M905 74q28 -32 30.5 -56t-18.5 -47q-24 -27 -53 -25.5t-56 23.5l-161 155q-45 -30 -97.5 -46.5t-110.5 -16.5q-79 0 -148 30t-120.5 81.5t-81 120.5t-29.5 148q0 78 29.5 147t81 120.5t120.5 81.5t148 30t148 -30t120.5 -81.5t81.5 -120.5t30 -147q0 -60 -17.5 -114
t-48.5 -99q13 -14 36.5 -37.5t47 -47.5t43.5 -43zM439 195q52 0 98 19.5t80 53.5t53.5 80t19.5 98t-19.5 98t-53.5 80t-80 53.5t-98 19.5t-97.5 -19.5t-79.5 -53.5t-54 -80t-20 -98t20 -98t54 -80t79.5 -53.5t97.5 -19.5zM500 509h125v-125h-125v-125h-126v125h-124v125h124
v125h126v-125z" />
    <glyph glyph-name="qrcode" unicode="&#xe601;" 
d="M92 832h359q11 -1 17 -7.5t8.5 -21t3 -24t0 -30t-0.5 -25.5v-196q0 -8 0.5 -26t0.5 -27.5t-2 -22.5t-6.5 -20.5t-13 -11t-25 -4t-39.5 0.5t-28 1h-191q-7 0 -27 -0.5t-30 -0.5t-24 2.5t-21 9t-9 16.5v360q8 21 28 27v0v0zM141 751v-256h259v260h-258q-1 -1 -1 -4v0v0z
M574 832h360q23 -9 27 -32v-350q-5 -25 -25 -31q-11 -3 -26 -3t-35.5 1t-28.5 1h-185q-8 0 -29 -1t-37 -1t-26 3q-9 3 -14.5 11t-7 22t-2 24.5t0 30t0.5 26.5v184q0 8 -0.5 29t-0.5 31.5t2.5 24.5t9 21t17.5 9v0v0zM624 751v-256h259v260h-258q-2 -1 -1 -4v0v0zM259 676
q27 5 46 -10t20 -40q0 -31 -26 -46.5t-53 -2.5q-19 10 -25.5 32t4 42.5t34.5 24.5v0v0zM742 676q44 8 59 -29q13 -32 -9 -58q-18 -22 -50 -16q-26 4 -36 27.5t0 47t36 28.5v0v0zM449 -65h-356q-23 7 -29 29v358q7 21 24 26q11 3 26 3t35.5 -1t29.5 -1h184q8 0 28.5 1.5
t36.5 1t27 -3.5q9 -3 15 -10.5t8 -21.5t2 -24.5t-0.5 -30t-0.5 -26.5v-189q0 -7 0.5 -28t0 -30.5t-3 -23.5t-9.5 -20.5t-18 -8.5v0v0zM141 268v-255h259v259h-258q-1 0 -1 -4v0v0zM961 317v-100q-1 -8 -1 -53v-55h-257v58q-5 2 -38.5 1.5t-40.5 -0.5q-2 -19 -1.5 -115
t-0.5 -118h-47q-11 3 -18 10.5t-9.5 21.5t-2.5 24.5t0.5 30.5t0.5 29v184q0 8 -1 29t-0.5 37t3.5 26q1 5 4 9t9 6.5t10 4t13 2t13 0.5h15.5h14.5h175v-158h81q0 14 -0.5 79.5t1.5 78.5q20 1 37 0.5t28 -8.5t12 -24v0v0zM265 195q30 3 48.5 -20t7.5 -53q-10 -27 -39 -31.5
t-50 15t-12.5 52.5t45.5 37v0v0zM790 -65h-87v47.5t1 45.5h86v-93zM961 28v-61q-5 -24 -29 -32h-61q0 9 -0.5 47.5t1.5 45.5h89v0zM961 28z" />
    <glyph glyph-name="voice-fill" unicode="&#xe66a;" 
d="M527 -56q-33 0 -73 40l-195 195h-88q-43 0 -73 30t-30 73v204q0 43 30 73t73 30h88l195 195q39 39 73 39q21 0 37 -15.5t16 -48.5v-750q0 -33 -15.5 -49t-37.5 -16zM699 151q-11 0 -20 6q-11 9 -13.5 23t6.5 25l13 19q23 31 34 48t21.5 48t10.5 64q0 35 -9.5 64
t-19.5 45.5t-32 45.5q-11 14 -18 24q-9 11 -6.5 25t14 22.5t25.5 6t22 -13.5q5 -7 17 -23q19 -25 28.5 -39.5t22.5 -39.5t18.5 -54t5.5 -63q0 -33 -6 -62t-20 -56t-24 -42t-29 -41l-13 -18q-10 -14 -28 -14zM815 35q-12 0 -22 9q-11 9 -12 23t9 25q62 70 97 138.5t35 153.5
t-35 153.5t-97 138.5q-10 11 -9 25t11.5 23.5t25 8.5t23.5 -12q68 -77 108.5 -157t40.5 -180t-40.5 -180t-108.5 -157q-10 -12 -26 -12z" />
    <glyph glyph-name="draw-line-measure" unicode="&#xe630;" 
d="M174 696l23 -23l-96 -96l75 -74l96 96l22 -22l-96 -96l73 -74l219 219l-266 264l-218 -218l72 -72zM754 362l-219 -219l74 -73l96 96l22 -22l-96 -96l74 -75l96 96l23 -23l-96 -96l72 -72l218 218zM982 641q20 20 20.5 48t-19.5 48l-120 119q-20 20 -48 20t-48 -20
l-74 -74l216 -215zM34 -93l104 38l-66 67zM83 46l89 -90l180 64l-205 205zM670 760l-506 -506l216 -217l507 507zM262 254l408 408l24 -24l-408 -408zM310 207l407 407l24 -23l-408 -408zM357 159l408 408l24 -24l-408 -408z" />
    <glyph glyph-name="search-minus" unicode="&#xe63d;" 
d="M974 38l-233 199q-36 32 -71 30q88 104 88 240q0 101 -49 186t-134.5 134.5t-186 49.5t-185.5 -49.5t-134.5 -134.5t-49.5 -185.5t49.5 -186t134.5 -134.5t186 -49q136 0 240 88q-2 -35 30 -71l199 -233q25 -29 61.5 -31t62 23.5t23.5 62t-31 61.5v0zM389 261
q-102 0 -174.5 72t-72.5 174t72.5 174.5t174.5 72.5t174 -72.5t72 -174.5t-72 -174t-174 -72zM204 569h370v-123h-370v123z" />
    <glyph glyph-name="clear-fill" unicode="&#xe6a6;" 
d="M956 691h-171v68q0 43 -30 73t-72 30h-342q-42 0 -72 -30t-30 -73v-68h-171q-14 0 -24 -10t-10 -24t10 -24t24 -10h888q14 0 24 10t10 24t-10 24t-24 10zM819 555h-614v0q-15 0 -24 -10q-10 -10 -10 -24v-512q0 -43 30 -73t72 -30h478q42 0 72 30t30 73v512q0 14 -10 24
t-24 10zM444 77q0 -14 -10 -24t-24.5 -10t-24.5 10t-10 24v375q0 14 10 24t24.5 10t24.5 -10t10 -24v-375zM649 77q0 -14 -10 -24t-24.5 -10t-24.5 10t-10 24v375q0 14 10 24t24.5 10t24.5 -10t10 -24v-375z" />
    <glyph glyph-name="voice-forbid-fill" unicode="&#xe6db;" 
d="M192 576q-41 0 -68.5 -27t-27.5 -66v-195q0 -41 27.5 -68.5t68.5 -27.5h83l183 -189q35 -35 67 -35q13 0 19 3q32 16 32 51v224l-342 330h-42zM950 86l-57 55q67 119 67 243q0 87 -30.5 168.5t-87.5 148.5q-10 10 -22.5 11t-22.5 -8q-10 -10 -11.5 -22.5t8.5 -22.5
q48 -58 75 -129.5t27 -145.5q0 -103 -51 -195l-93 89q16 59 16 106q0 114 -67 205q-7 12 -20 14t-25 -8q-26 -20 -6 -45q54 -74 54 -166q0 -22 -6 -54l-122 115v297q0 19 -8.5 33t-23.5 19q-43 16 -86 -32l-106 -106l-138 134q-9 10 -22 10t-22.5 -9.5t-9.5 -22.5t10 -22
l736 -704q9 -10 22 -10t22.5 9.5t9.5 22.5t-10 22z" />
    <glyph glyph-name="draw-pencil" unicode="&#xe70a;" 
d="M162 248l500 499l214 -213l-500 -500zM685 627l-24 23l-401 -402l23 -23zM732 580l-24 24l-402 -402l24 -24zM779 533l-24 24l-402 -402l24 -24zM758 842q19 19 47 19.5t47 -19.5l118 -118q19 -19 19 -47t-19 -47l-73 -73l-212 212zM146 220l202 -202l-177 -63l-88 88z
M137 -56l-102 -38l37 103z" />
    <glyph glyph-name="minus" unicode="&#xe60b;" 
d="M135 459h754v-150h-754v150z" />
    <glyph glyph-name="map-point" unicode="&#xe7b9;" 
d="M512 880q-105 0 -194 -51.5t-141 -141t-52 -194.5q0 -55 21.5 -119t55.5 -121t75 -113.5t82 -101.5t75.5 -80t55.5 -54l21 -19q8 7 22 19.5t54.5 52.5t77 81t81.5 100t77 114.5t54 120t22 120.5q0 105 -51.5 194.5t-141 141t-194.5 51.5zM511 51q-12 10 -30.5 27.5
t-66 70t-83.5 102.5t-66 117t-30 122q0 116 81 198t195.5 82t195.5 -82t81 -198q0 -55 -28.5 -121t-69.5 -120t-81.5 -100t-69.5 -72zM511.5 604q-45.5 0 -78 -32.5t-32.5 -78t32.5 -78t78 -32.5t78 32.5t32.5 78t-32.5 78t-78 32.5z" />
    <glyph glyph-name="dolphin" unicode="&#xe603;" 
d="M875 176q31 119 -42 244q-21 39 -66 90t-73 77.5t-53 48.5q15 21 24 50.5t10 47.5l2 19h-1q-13 7 -30 8q-100 13 -206 -80q-275 -10 -335 -133q-21 -43 -12 -80q-97 -44 -46 -89q10 -8 29 -14q19 -5 43 -5l191 -1q24 -43 85 -72q5 -1 7 -2q37 -14 46 -8q2 7 3 17l-5 68
q72 -6 135 -30.5t100.5 -53.5t66.5 -61t39 -48.5t12 -20.5l-53 -112q30 23 57 26.5t45 -8t33 -32.5t23.5 -44.5t14.5 -46.5t8 -36t2 -14q35 175 -34 272q-11 15 -20 23v0z" />
    <glyph glyph-name="info-circle" unicode="&#xe629;" 
d="M504 880q-102 0 -195.5 -40t-160.5 -107.5t-107 -161t-40 -196t40 -195.5t107 -160.5t160.5 -107.5t196 -40t195.5 40t160.5 107.5t107.5 160.5t40 195.5t-40 196t-107.5 161t-160.5 107.5t-196 40v0zM583 191q-33 -50 -65 -75.5t-77 -25.5q-32 5 -46 26t-6 46l83 277
q4 12 -8 16q-9 4 -29 -17l-49 -62q-1 4 -1 11t0.5 14t0.5 9q28 42 69.5 72t72.5 30q29 -3 43 -23.5t9 -48.5l-84 -278q-2 -11 8 -15t29 17l51 61q1 -7 0.5 -12t-1 -12.5t-0.5 -9.5v0zM572 553q-25 0 -41.5 16t-16.5 41q0 26 16.5 42t41.5 16t41.5 -16.5t16.5 -41.5
t-16.5 -41t-41.5 -16v0zM572 553z" />
    <glyph glyph-name="draw-rect" unicode="&#xe604;" 
d="M943 117v538q23 8 38 28.5t15 46.5q0 33 -23 56t-56 23q-25 0 -46 -15t-29 -39h-660q-8 24 -28.5 39t-46.5 15q-33 0 -56 -23t-23 -56q0 -26 15 -46.5t39 -28.5v-538q-24 -8 -39 -28.5t-15 -46.5q0 -32 23 -55.5t56 -23.5q26 0 46.5 15.5t28.5 38.5h660q8 -23 29 -38.5
t46 -15.5q33 0 56 23.5t23 55.5q0 26 -15 46.5t-38 28.5zM842 68h-660q-13 37 -50 49v538q37 13 50 50h660q13 -37 50 -50v-538q-37 -12 -50 -49z" />
    <glyph glyph-name="draw-circle" unicode="&#xe606;" 
d="M491 845q-94 0 -179.5 -36.5t-147 -98.5t-98 -147t-36.5 -179t36.5 -179t98 -147t147 -98.5t179.5 -36.5q166 0 293 106t159 266q30 10 49.5 36.5t19.5 59.5q0 35 -20.5 62t-52.5 36q-36 155 -161 255.5t-287 100.5zM491 774q143 0 245.5 -78.5t133.5 -210.5
q-28 -12 -45 -37t-17 -57t18 -57.5t46 -37.5q-27 -137 -130.5 -219.5t-250.5 -82.5q-172 0 -281.5 109.5t-109.5 280.5t109.5 280.5t281.5 109.5zM416 458v-147h147v147h-147z" />
    <glyph glyph-name="draw-polygon" unicode="&#xe607;" 
d="M942 170v319q24 8 39 28.5t15 46.5q0 33 -23 56t-56 23q-26 0 -46.5 -15t-28.5 -39l-660 219q-8 23 -28.5 38t-46.5 15q-33 0 -56 -23t-23 -56q0 -25 15 -45.5t39 -28.5l109 -648q-24 -7 -39 -28t-15 -46q0 -33 23 -56t56 -23q26 0 46.5 15t28.5 38l551 110
q8 -24 28.5 -39t46.5 -15q33 0 56 23t23 56q0 26 -15 46.5t-39 28.5zM842 120l-551 -109q-13 37 -50 49l-109 648q37 12 50 49l660 -218q13 -37 50 -50v-319q-37 -13 -50 -50z" />
    <glyph glyph-name="mouse-pointer" unicode="&#xe65c;" 
d="M825 305q16 -16 7 -37t-31 -21h-205l108 -255q5 -14 -0.5 -26.5t-18.5 -18.5l-94 -40q-14 -6 -27 -0.5t-18 18.5l-103 242l-167 -167q-10 -10 -24 -10q-6 0 -13 2q-21 10 -21 32v806q0 22 21 31q7 3 13 3q14 0 24 -10z" />
    <glyph glyph-name="search" unicode="&#xe65f;" 
d="M663 435.5q0 87.5 -62 149t-149 61.5t-149 -61.5t-62 -149t62 -149t149 -61.5t149 61.5t62 149zM904 44q0 -25 -18 -43t-43 -18t-42 18l-161 161q-85 -58 -188 -58q-68 0 -129 26t-105.5 70.5t-71 106t-26.5 129t26.5 129t71 106t105.5 70.5t128.5 26t129 -26t106 -70.5
t70.5 -106t26 -129.5q0 -103 -58 -187l161 -162q18 -17 18 -42v0z" />
    <glyph glyph-name="setting" unicode="&#xe602;" 
d="M873 337q3 27 3 47t-3 47l102 81q17 12 6 31l-97 168q-10 18 -30 10l-120 -48q-39 29 -82 47l-19 129q-1 9 -8 14.5t-16 5.5h-194q-9 0 -16 -5.5t-8 -14.5l-18 -129q-45 -18 -82 -47l-121 48q-20 8 -30 -10l-97 -168q-10 -18 6 -31l102 -81q-3 -27 -3 -47t3 -47l-102 -81
q-16 -12 -6 -31l97 -168q11 -18 30 -10l121 48q38 -29 82 -47l18 -129q1 -9 8 -14.5t16 -5.5h194q9 0 16 5.5t8 14.5l18 129q45 18 82 47l121 -48q20 -8 30 10l97 168q10 18 -6 31zM512 214q-70 0 -120 50t-50 120t50 120t120 50t120 -50t50 -120t-50 -120t-120 -50z" />
    <glyph glyph-name="move-lr" unicode="&#xe631;" 
d="M982 499h-948l182 123h766v-123zM818 121h-766v126h939zM216 622l191 129v-130zM818 120l-192 -128l1 130z" />
    <glyph glyph-name="circle-point" unicode="&#xe61c;" 
d="M512 866q-98 0 -187.5 -38t-154 -102.5t-102.5 -154t-38 -187.5t38 -187.5t102.5 -154t154 -102.5t187.5 -38t187.5 38t154 102.5t102.5 154t38 187.5t-38 187.5t-102.5 154t-154 102.5t-187.5 38zM512 9q-102 0 -188.5 50t-136.5 136.5t-50 188.5t50 188.5t136.5 136.5
t188.5 50t188.5 -50t136.5 -136.5t50 -188.5t-50 -188.5t-136.5 -136.5t-188.5 -50zM512 598q89 0 151.5 -62.5t62.5 -151.5t-62.5 -151.5t-151.5 -62.5t-151.5 62.5t-62.5 151.5t62.5 151.5t151.5 62.5z" />
    <glyph glyph-name="draw-line" unicode="&#xe61d;" 
d="M927 610q-33 0 -56.5 -23.5t-23.5 -56.5q0 -15 6 -30l-235 -219q-19 14 -43 14h-1q-12 0 -23 -4l-75 149q8 17 8 36v0q0 33 -23 56.5t-56 23.5t-56 -23.5t-23 -56.5q0 -6 1 -12l-190 -203q-19 12 -42 12v0q-33 0 -56 -23t-23 -56t23 -56t56 -23t56 23t23 56q0 12 -3 23
l183 198q22 -18 51 -18q16 0 31 6l71 -146q-12 -19 -12 -42v0q0 -33 23.5 -56t56 -23t56 23t23.5 56q0 11 -3 22l240 223q16 -9 36 -9v0q33 0 56 23t23 56t-23 56.5t-56 23.5zM95 170q-10 0 -17 7t-7 17t7 17t17 7t17 -7t7 -17t-7 -17t-17 -7zM390 457q-9 7 -9 19v0
q0 10 7 17.5t17 7.5t17 -7.5t7 -17.5t-7 -17v0q-8 -7 -17.5 -6.5t-14.5 4.5zM574.5 191q-10.5 0 -17.5 7t-7 17v0v0q0 12 9 19l1 1h1q6 5 13 5v0q11 0 18 -7.5t7 -17.5t-7 -17t-17.5 -7zM927 506q-10 0 -17.5 7t-7.5 17t7.5 17.5t17.5 7.5t17 -7.5t7 -17.5t-7 -17t-17 -7z
" />
    <glyph glyph-name="screen" unicode="&#xe6f5;" 
d="M177 250h-134v-335h335v134h-201v201zM43 518h134v201h201v134h-335v-335v0zM847 49h-201v-134h335v335h-134v-201v0zM646 853v-134h201v-201h134v335h-335z" />
    <glyph glyph-name="draw-curve" unicode="&#xe625;" 
d="M900 322q-1 0 -3.5 -0.5l-2.5 -0.5l-160 401q-15 42 -44.5 75t-67.5 50q-65 31 -128 7l-7 -2q-70 -26 -99 -101t0 -156l3 -8l-1 -1l82 -191l95 -216l1 1l5 -14q21 -58 3 -112q-17 -49 -58 -64l-6 -2q-42 -15 -86 12q-49 29 -70 87l-151 382q36 29 36 74q0 39 -28 67
t-67.5 28t-67 -28t-27.5 -67t27.5 -67t66.5 -28l151 -382q29 -80 97 -120q43 -26 89 -26q26 0 51 8l6 3q70 25 97 103q25 74 -4 154l-98 221l-86 207q-21 57 -2.5 108.5t63.5 68.5l7 2q38 14 80 -5q55 -26 78 -90l161 -404q-30 -28 -30 -69q0 -39 28 -66.5t67 -27.5t67 27.5
t28 66.5t-28 67t-67 28zM106 542.5q0 16.5 11.5 28.5t28 12t28.5 -12t12 -28.5t-12 -28t-28.5 -11.5t-28 11.5t-11.5 28zM900.5 187q-16.5 0 -28.5 12t-12 28.5t12 28t28.5 11.5t28 -11.5t11.5 -28t-11.5 -28.5t-28 -12z" />
    <glyph glyph-name="plus" unicode="&#xe7d3;" 
d="M961 458h-374v374h-150v-374h-374v-150h374v-374h150v374h374v150z" />
  </font>
</defs>
</svg>
